# xmcd
#
# Track frame offsets:
#	150
#	18907
#	34964
#	55218
#	68575
#	86881
#	106386
#	122143
#	147197
#	161154
#	180663
#	202404
#
# Disc length: 2980 seconds
#
# Revision: 1
# Processed by: cddbd v1.5.1PL2 Copyright (c) Steve Scherf et al.
# Submitted via: audiograbber 1.83.01
#
DISCID=af0ba20c
DTITLE=Mark Knopfler And Emmylou Harris - All The Roadrunning
DYEAR=2006
DGENRE=Country
TTITLE0=BeachcombingTrack  1
TTITLE1=I Dug Up A Diamond
TTITLE2=This Is Us
TTITLE3=Red Staggerwing
TTITLE4=Rollin' On
TTITLE5=Love And Happiness
TTITLE6=Right Now
TTITLE7=Donkey Town
TTITLE8=Belle Star
TTITLE9=Beyond My Wildest Dreams
TTITLE10=All The Roadrunning
TTITLE11=If This Is Goodbye
EXTD=
EXTT0=
EXTT1=
EXTT2=
EXTT3=
EXTT4=
EXTT5=
EXTT6=
EXTT7=
EXTT8=
EXTT9=
EXTT10=
EXTT11=
PLAYORDER=
